<svg width="1024" height="1024" viewBox="0 0 1024 1024" fill="none" xmlns="http://www.w3.org/2000/svg">
<path d="M775.875 0.504475C642.678 -0.379897 301.402 0.504448 235.135 0.0622621C222.986 -0.379923 207.524 1.60993 192.724 3.59976C79.4068 19.9606 -3.42719 125.422 0.327948 238.18C1.65329 313.793 -1.66008 664.005 1.21149 809.041C7.61732 922.683 101.717 1016.64 215.476 1022.84C357.066 1025.49 682.659 1022.62 758.867 1023.73C907.084 1027.48 1026.8 908.091 1023.27 759.296C1023.05 703.58 1023.49 406.652 1023.27 288.147C1033.66 135.15 932.265 8.24271 776.538 0.283368L775.875 0.504475ZM128.444 755.537C126.898 728.785 127.34 699.821 155.614 688.767C177.704 679.923 204.872 677.491 229.392 675.28C309.133 667.763 350.661 691.42 345.58 774.551C344.918 795.997 342.266 819.654 338.732 839.995C336.302 852.376 333.873 863.872 328.571 873.601C316.202 897.699 283.951 896.816 260.317 895.047C187.202 890.625 129.77 828.939 128.444 756.2V755.537ZM893.609 762.612C886.32 844.417 820.495 898.142 739.428 895.267C697.459 895.489 616.171 895.267 577.294 895.489C558.297 895.931 534.663 895.709 531.349 871.832C529.361 856.134 542.172 838.888 551.67 825.402C689.507 643.664 798.848 364.645 789.128 272.67C788.687 257.415 776.317 242.159 762.18 237.958C669.848 221.597 414.94 298.096 229.613 418.592C209.07 430.973 186.318 451.756 165.113 458.388C151.638 462.81 135.513 456.84 131.095 442.912C128.003 434.068 128.444 423.676 128.223 409.306C128.223 378.794 128.223 336.787 128.223 306.276C128.444 284.83 127.34 269.574 130.875 248.792C139.048 194.624 179.25 148.415 232.484 134.708C245.958 130.949 258.991 128.96 271.803 128.739C391.083 128.517 680.892 128.739 742.52 128.739C816.74 126.527 881.902 176.494 892.284 251.888C894.052 262.5 894.272 270.017 894.272 279.966C894.272 294.558 894.272 326.175 894.272 366.855C893.831 478.065 895.377 657.151 893.609 762.391V762.612ZM665.43 405.989C665.43 440.922 637.155 469.001 602.476 469.001C567.575 469.001 539.522 440.7 539.522 405.989C539.522 371.056 567.796 342.978 602.476 342.978C637.155 342.756 665.43 371.056 665.43 405.989Z" fill="#070707"/>
</svg>
