<svg width="1024" height="1024" viewBox="0 0 1024 1024" fill="none" xmlns="http://www.w3.org/2000/svg">
<rect width="1024" height="1024" rx="256" fill="#FAFAFA"/>
<path d="M709.906 128.378C610.009 127.715 354.051 128.378 304.351 128.047C295.24 127.715 283.643 129.207 272.543 130.7C187.555 142.97 125.43 222.066 128.246 306.635C129.24 363.345 126.755 626.004 128.909 734.781C133.713 820.012 204.288 890.482 289.607 895.127C395.8 897.118 639.994 894.961 697.15 895.795C808.313 898.614 898.102 809.069 895.452 697.472C895.287 655.685 895.618 432.989 895.452 344.11C903.244 229.363 827.199 134.182 710.404 128.213L709.906 128.378ZM224.333 694.653C223.174 674.589 223.505 652.866 244.711 644.575C261.278 637.942 281.654 636.118 300.044 634.46C359.85 628.823 390.996 646.565 387.185 708.914C386.688 724.998 384.7 742.74 382.049 757.996C380.227 767.282 378.405 775.904 374.429 783.201C365.151 801.275 340.964 800.612 323.238 799.285C268.401 795.969 225.327 749.705 224.333 695.15V694.653ZM798.207 699.959C792.74 761.312 743.371 801.607 682.571 799.451C651.094 799.617 590.128 799.451 560.97 799.617C546.723 799.948 528.997 799.782 526.512 781.874C525.021 770.101 534.629 757.166 541.753 747.052C645.13 610.748 727.136 401.483 719.846 332.502C719.515 321.061 710.238 309.619 699.635 306.469C630.386 294.198 439.205 351.572 300.21 441.944C284.802 451.23 267.739 466.817 251.834 471.791C241.728 475.108 229.634 470.63 226.321 460.184C224.002 453.551 224.333 445.757 224.167 434.979C224.167 412.096 224.167 380.59 224.167 357.707C224.333 341.623 223.505 330.181 226.156 314.594C232.286 273.968 262.437 239.311 302.363 229.031C312.469 226.212 322.243 224.72 331.852 224.554C421.312 224.388 638.669 224.554 684.89 224.554C740.555 222.895 789.427 260.371 797.213 316.916C798.539 324.875 798.704 330.513 798.704 337.975C798.704 348.918 798.704 372.631 798.704 403.141C798.373 486.549 799.533 620.863 798.207 699.793V699.959ZM627.072 432.492C627.072 458.691 605.866 479.75 579.857 479.75C553.682 479.75 532.641 458.525 532.641 432.492C532.641 406.292 553.847 385.233 579.857 385.233C605.866 385.067 627.072 406.292 627.072 432.492Z" fill="#070707"/>
</svg>
