<svg width="6482" height="1024" viewBox="0 0 6482 1024" fill="none" xmlns="http://www.w3.org/2000/svg">
<path d="M697.832 0.453239C578.034 -0.341313 271.085 0.453215 211.483 0.0559386C200.557 -0.341338 186.65 1.44642 173.338 3.23416C71.4196 17.9334 -3.08247 112.684 0.294961 213.99C1.48699 281.923 -1.4931 596.567 1.08963 726.873C6.85113 828.973 91.4858 913.39 193.802 918.954C321.15 921.339 613.993 918.756 682.535 919.755C815.844 923.131 923.521 815.863 920.343 682.18C920.145 632.123 920.542 365.352 920.343 258.882C929.687 121.424 838.492 7.40556 698.429 0.254589L697.832 0.453239ZM115.525 678.803C114.134 654.768 114.532 628.746 139.962 618.814C159.829 610.868 184.265 608.683 206.318 606.697C278.039 599.944 315.389 621.198 310.82 695.886C310.224 715.153 307.839 736.408 304.661 754.683C302.475 765.806 300.29 776.135 295.522 784.876C284.396 806.527 255.39 805.733 234.133 804.144C168.372 800.171 116.717 744.75 115.525 679.399V678.803ZM803.725 685.159C797.169 758.656 737.964 806.925 665.052 804.342C627.304 804.541 554.193 804.342 519.226 804.541C502.14 804.938 480.883 804.739 477.903 783.287C476.115 769.183 487.637 753.689 496.18 741.572C620.152 578.292 718.495 327.61 709.753 244.977C709.356 231.271 698.23 217.565 685.515 213.791C602.471 199.091 373.203 267.821 206.517 376.078C188.04 387.202 167.577 405.874 148.505 411.833C136.385 415.806 121.882 410.442 117.909 397.929C115.128 389.983 115.525 380.646 115.326 367.736C115.326 340.323 115.326 302.582 115.326 275.17C115.525 255.902 114.532 242.196 117.71 223.524C125.061 174.857 161.22 133.342 209.1 121.026C221.218 117.649 232.94 115.862 244.463 115.664C351.746 115.465 612.404 115.664 667.833 115.664C734.588 113.677 793.195 158.569 802.533 226.305C804.123 235.84 804.321 242.594 804.321 251.532C804.321 264.642 804.321 293.048 804.321 329.596C803.924 429.511 805.315 590.409 803.725 684.961V685.159ZM598.497 364.756C598.497 396.141 573.066 421.368 541.875 421.368C510.485 421.368 485.254 395.942 485.254 364.756C485.254 333.371 510.683 308.144 541.875 308.144C573.066 307.945 598.497 333.371 598.497 364.756Z" fill="#FAFAFA"/>
<path d="M2416.24 820.382V739.553H2412.71C2391.54 773.244 2364.09 797.521 2330.37 812.489C2296.65 827.457 2262.13 834.914 2226.86 834.914C2182.19 834.914 2145.5 829.309 2116.85 818.097C2088.21 806.884 2065.67 790.99 2049.18 770.415C2032.69 749.839 2021.11 724.8 2014.49 695.244C2007.82 665.688 2004.51 632.976 2004.51 597.051V240.146H2171.57V567.877C2171.57 615.774 2179.39 651.482 2195.08 675.051C2210.78 698.62 2238.62 710.43 2278.62 710.43C2324.09 710.43 2357.02 697.529 2377.44 671.732C2397.81 645.931 2408.03 603.474 2408.03 544.361V240.2H2575.09V820.436H2416.24V820.382Z" fill="#FAFAFA"/>
<path d="M2839.73 19.0522V820.389H2672.67V19.0522H2839.73Z" fill="#FAFAFA"/>
<path d="M3109.16 19.0522V820.389H2942.1V19.0522H3109.16Z" fill="#FAFAFA"/>
<path d="M3365.59 622.854C3375.8 641.581 3389.32 656.713 3406.16 668.305C3423.05 679.9 3442.79 688.501 3465.55 694.106C3488.32 699.713 3511.83 702.543 3536.14 702.543C3552.62 702.543 3570.26 701.237 3589.09 698.623C3607.92 696.012 3625.55 690.948 3642.04 683.491C3658.53 676.034 3672.22 665.747 3683.23 652.629C3694.19 639.567 3699.72 622.911 3699.72 602.715C3699.72 580.998 3692.48 563.416 3677.99 549.972C3663.49 536.528 3644.43 525.262 3620.92 516.281C3597.42 507.297 3570.71 499.461 3540.93 492.712C3511.09 485.963 3480.96 478.506 3450.32 470.284C3418.94 462.827 3388.35 453.628 3358.57 442.798C3328.73 431.965 3302.08 417.923 3278.57 400.724C3255.06 383.521 3236.01 362.022 3221.51 336.168C3207.02 310.367 3199.77 279.123 3199.77 242.436C3199.77 201.286 3208.96 165.58 3227.45 135.261C3245.88 104.943 3270.01 79.6873 3299.8 59.4932C3329.58 39.2992 3363.3 24.3307 3400.96 14.5875C3438.62 4.89876 3476.28 0 3513.88 0C3557.82 0 3599.93 4.68118 3640.38 14.0433C3680.78 23.4055 3716.67 38.5373 3748.05 59.4932C3779.43 80.4491 3804.31 107.175 3822.74 139.725C3841.17 172.275 3850.41 211.737 3850.41 258.113H3671.59C3670 234.163 3664.69 214.35 3655.73 198.619C3646.71 182.889 3634.73 170.587 3619.84 161.606C3604.95 152.625 3587.89 146.256 3568.66 142.501C3549.43 138.745 3528.43 136.894 3505.72 136.894C3490.83 136.894 3475.88 138.418 3461.05 141.358C3446.16 144.351 3432.63 149.577 3420.48 157.089C3408.32 164.6 3398.34 173.907 3390.46 185.121C3382.59 196.333 3378.71 210.54 3378.71 227.74C3378.71 243.47 3381.85 256.207 3388.13 265.896C3394.4 275.639 3406.73 284.621 3425.21 292.84C3443.64 301.06 3469.15 309.279 3501.67 317.552C3534.2 325.771 3576.76 336.275 3629.31 348.957C3645 351.951 3666.74 357.394 3694.59 365.234C3722.43 373.07 3750.05 385.645 3777.55 402.845C3805 420.044 3828.73 443.07 3848.7 471.864C3868.68 500.659 3878.72 537.508 3878.72 582.414C3878.72 619.099 3871.24 653.119 3856.35 684.527C3841.46 715.933 3819.32 743.093 3789.88 765.901C3760.49 788.708 3723.97 806.508 3680.49 819.19C3637.01 831.873 3586.58 838.239 3529.29 838.239C3483.01 838.239 3438.11 832.796 3394.57 821.966C3351.04 811.133 3312.58 794.098 3279.26 770.908C3245.93 747.721 3219.46 718.165 3199.83 682.239C3180.2 646.316 3170.79 603.695 3171.59 554.328H3350.41C3350.35 581.324 3355.43 604.185 3365.59 622.854Z" fill="#FAFAFA"/>
<path d="M4095.03 240.151V314.233H4097.37C4117.74 282.825 4143.64 260.018 4175.03 245.757C4206.41 231.551 4240.93 224.42 4278.53 224.42C4326.34 224.42 4367.55 233.021 4402.07 250.221C4436.58 267.421 4465.17 290.228 4487.94 318.696C4510.71 347.162 4527.53 380.256 4538.55 418.031C4549.51 455.806 4555.03 495.323 4555.03 536.421C4555.03 575.337 4549.54 612.733 4538.55 648.656C4527.53 684.581 4510.87 716.369 4488.57 744.073C4466.21 771.78 4438.37 793.826 4405.04 810.317C4371.72 826.755 4332.67 835.028 4287.94 835.028C4250.29 835.028 4215.6 827.735 4183.81 813.147C4152.03 798.561 4125.96 777.06 4105.58 748.591H4103.24V1023.58H3936.18V240.151H4095.03ZM4312.08 700.311C4330.51 689.86 4345.41 676.198 4356.75 659.324C4368.12 642.507 4376.17 622.858 4380.9 600.43C4385.56 578.005 4387.97 555.144 4387.97 531.957C4387.97 508.767 4385.41 485.963 4380.33 463.481C4375.2 441.056 4366.8 421.025 4355.06 403.446C4343.28 385.864 4328.16 371.658 4309.74 360.825C4291.31 349.994 4268.77 344.551 4242.07 344.551C4214.62 344.551 4191.69 349.994 4173.26 360.825C4154.83 371.658 4139.93 385.699 4128.58 402.899C4117.22 420.101 4109.18 439.912 4104.44 462.394C4099.76 484.819 4097.37 508.062 4097.37 531.957C4097.37 555.144 4099.88 577.951 4105.01 600.43C4110.09 622.858 4118.36 642.507 4129.72 659.324C4141.08 676.144 4156.2 689.807 4175.03 700.311C4193.85 710.815 4216.56 716.044 4243.27 716.044C4270.71 715.987 4293.65 710.762 4312.08 700.311Z" fill="#FAFAFA"/>
<path d="M4613.81 418.575C4616.13 381.182 4625.96 350.102 4643.25 325.445C4660.48 300.732 4682.43 280.92 4709.15 265.951C4735.8 250.983 4765.8 240.314 4799.12 233.946C4832.45 227.577 4865.99 224.42 4899.72 224.42C4930.31 224.42 4961.29 226.489 4992.67 230.571C5024.05 234.708 5052.64 242.764 5078.54 254.684C5104.44 266.659 5125.62 283.315 5142.06 304.652C5158.47 325.989 5166.77 354.24 5166.77 389.401V691.277C5166.77 717.457 5168.3 742.55 5171.5 766.445C5174.63 790.396 5180.11 808.358 5187.97 820.332H5018.51C5015.37 811.351 5012.81 802.206 5010.87 792.846C5008.92 783.483 5007.51 773.958 5006.76 764.213C4980.11 790.396 4948.73 808.74 4912.68 819.191C4876.6 829.641 4839.74 834.92 4802.1 834.92C4773.03 834.92 4746.01 831.544 4720.89 824.795C4695.8 818.046 4673.82 807.596 4655 793.39C4636.17 779.184 4621.45 761.219 4610.9 739.502C4600.28 717.839 4595.02 691.985 4595.02 662.046C4595.02 629.117 4601.07 602.01 4613.28 580.673C4625.43 559.335 4641.12 542.354 4660.35 529.615C4679.58 516.932 4701.57 507.354 4726.24 500.985C4750.95 494.615 4775.85 489.608 4800.94 485.853C4826.06 482.097 4850.77 479.104 4875.07 476.872C4899.37 474.64 4920.95 471.264 4939.77 466.747C4958.59 462.23 4973.5 455.699 4984.46 447.097C4995.39 438.499 5000.53 425.978 4999.75 409.487C4999.75 392.287 4996.83 378.625 4990.88 368.5C4985.03 358.375 4977.14 350.538 4967.4 344.931C4957.56 339.326 4946.22 335.567 4933.26 333.718C4920.32 331.869 4906.39 330.943 4891.51 330.943C4858.56 330.943 4832.66 337.692 4813.84 351.136C4795.02 364.58 4784 387.062 4780.93 418.467H4613.81V418.575ZM4999.68 536.421C4992.61 542.408 4983.84 547.089 4973.22 550.462C4962.6 553.838 4951.24 556.614 4939.08 558.899C4926.93 561.131 4914.15 563.037 4900.88 564.507C4887.5 566.031 4874.22 567.88 4860.85 570.112C4848.32 572.343 4835.92 575.337 4823.77 579.092C4811.62 582.851 4801 587.912 4791.98 594.225C4782.96 600.594 4775.73 608.649 4770.25 618.337C4764.77 628.083 4762.04 640.437 4762.04 655.351C4762.04 669.557 4764.77 681.534 4770.25 691.277C4775.73 701.019 4783.21 708.694 4792.61 714.302C4802.04 719.907 4813 723.827 4825.56 726.112C4838.08 728.344 4850.99 729.488 4864.33 729.488C4897.27 729.488 4922.77 724.263 4940.81 713.755C4958.85 703.305 4972.19 690.733 4980.8 676.145C4989.41 661.556 4994.74 646.806 4996.65 631.838C4998.59 616.868 4999.56 604.893 4999.56 595.913V536.421H4999.68Z" fill="#FAFAFA"/>
<path d="M5552.66 344.551C5526.01 344.551 5503.65 350.374 5485.61 361.969C5467.57 373.561 5452.85 388.531 5441.49 406.872C5430.15 425.216 5422.1 445.409 5417.37 467.455C5412.64 489.554 5410.29 511.435 5410.29 533.098C5410.29 554.056 5412.64 575.394 5417.37 597.057C5422.04 618.774 5429.74 638.423 5440.29 656.005C5450.91 673.587 5465.19 688.011 5483.26 699.224C5501.3 710.436 5523.26 716.044 5549.16 716.044C5589.18 716.044 5619.94 705.375 5641.55 684.038C5663.12 662.7 5676.65 634.124 5682.1 598.198H5843.3C5832.31 675.272 5800.96 734.005 5749.16 774.391C5697.42 814.781 5631.12 834.974 5550.32 834.974C5504.84 834.974 5463.06 827.681 5425.01 813.093C5386.96 798.504 5354.61 778.147 5327.96 751.913C5301.3 725.733 5280.48 694.488 5265.6 658.183C5250.69 621.878 5243.21 582.032 5243.21 538.652C5243.21 493.746 5250.07 452.051 5263.82 413.514C5277.5 374.977 5297.7 341.665 5324.42 313.632C5351.07 285.601 5383.64 263.665 5422.04 247.989C5460.43 232.258 5504.37 224.42 5553.79 224.42C5589.84 224.42 5624.54 228.884 5657.93 237.865C5691.25 246.846 5721.03 260.508 5747.34 278.851C5773.58 297.195 5794.97 320.002 5811.48 347.327C5827.95 374.651 5837.38 406.983 5839.73 444.376H5676.18C5665.16 377.806 5623.98 344.551 5552.66 344.551Z" fill="#FAFAFA"/>
<path d="M6082.04 681.211C6107.16 704.398 6143.21 715.993 6190.28 715.993C6224.01 715.993 6253.04 707.936 6277.38 691.88C6301.68 675.822 6316.55 658.784 6322.04 640.822H6469.07C6445.59 710.385 6409.44 760.189 6360.84 790.074C6312.23 820.009 6253.39 834.977 6184.36 834.977C6136.47 834.977 6093.35 827.684 6054.95 813.096C6016.49 798.511 5983.95 777.717 5957.33 750.828C5930.68 723.883 5910.08 691.716 5895.57 654.32C5881.07 616.927 5873.84 575.776 5873.84 530.872C5873.84 487.49 5881.26 447.103 5896.2 409.654C5911.11 372.258 5932.28 339.872 5959.71 312.602C5987.15 285.278 6019.91 263.778 6057.96 248.047C6096.04 232.316 6138.13 224.479 6184.49 224.479C6236.22 224.479 6281.35 234.004 6319.75 253.109C6358.15 272.215 6389.78 297.852 6414.49 329.966C6439.2 362.136 6457.05 398.821 6468.01 439.972C6478.94 481.12 6482.89 524.121 6479.75 569.027H6040.92C6043.24 620.629 6056.96 658.022 6082.04 681.211ZM6270.86 375.96C6250.82 355.005 6220.47 344.554 6179.69 344.554C6153.04 344.554 6130.84 348.853 6113.21 357.454C6095.57 366.053 6081.42 376.721 6070.86 389.461C6060.25 402.197 6052.82 415.641 6048.5 429.847C6044.15 444.053 6041.58 456.792 6040.86 468.005H6312.64C6304.81 427.561 6290.87 396.918 6270.86 375.96Z" fill="#FAFAFA"/>
<path d="M1896.77 21.1235V821.697H1712.24L1441.33 405.734L1312.94 206.462L1193.52 21.1235H1371.37L1721.6 558.197H1724V21.1235H1896.77Z" fill="#FAFAFA"/>
<path d="M1188 199.592L1360.77 467.721V821.685H1188V199.592Z" fill="#FAFAFA"/>
</svg>
