<svg width="5106" height="1024" viewBox="0 0 5106 1024" fill="none" xmlns="http://www.w3.org/2000/svg">
<rect width="5105.58" height="1024" rx="192" fill="#FAFAFA"/>
<path d="M692.833 192.325C606.854 191.755 386.557 192.325 343.781 192.04C335.939 191.755 325.958 193.038 316.405 194.32C243.258 204.865 189.788 272.838 192.212 345.514C193.067 394.249 190.928 619.972 192.782 713.452C196.917 786.698 257.659 847.258 331.091 851.25C422.489 852.961 632.662 851.107 681.854 851.824C777.53 854.246 854.809 777.293 852.529 681.39C852.387 645.479 852.671 454.1 852.529 377.72C859.235 279.109 793.785 197.313 693.261 192.183L692.833 192.325ZM274.912 678.967C273.914 661.725 274.199 643.057 292.45 635.932C306.709 630.232 324.247 628.664 340.074 627.239C391.548 622.394 418.354 637.642 415.075 691.223C414.647 705.045 412.936 720.292 410.654 733.403C409.086 741.383 407.518 748.793 404.095 755.063C396.111 770.595 375.293 770.026 360.036 768.886C312.84 766.036 275.767 726.277 274.912 679.395V678.967ZM768.832 683.527C764.127 736.253 721.636 770.881 669.306 769.028C642.215 769.171 589.743 769.028 564.648 769.171C552.385 769.456 537.129 769.313 534.99 753.923C533.707 743.805 541.976 732.69 548.108 723.998C637.082 606.861 707.662 427.025 701.388 367.744C701.103 357.912 693.119 348.079 683.993 345.372C624.392 334.826 459.847 384.132 340.217 461.795C326.956 469.775 312.27 483.171 298.581 487.445C289.883 490.296 279.474 486.448 276.623 477.471C274.627 471.77 274.912 465.072 274.769 455.81C274.769 436.145 274.769 409.07 274.769 389.405C274.912 375.582 274.199 365.749 276.481 352.354C281.756 317.441 307.707 287.658 342.07 278.823C350.768 276.401 359.18 275.119 367.451 274.976C444.447 274.833 631.521 274.976 671.303 274.976C719.212 273.551 761.275 305.756 767.977 354.349C769.117 361.189 769.26 366.035 769.26 372.447C769.26 381.852 769.26 402.23 769.26 428.45C768.975 500.128 769.973 615.554 768.832 683.385V683.527ZM621.54 453.673C621.54 476.188 603.289 494.286 580.903 494.286C558.374 494.286 540.266 476.045 540.266 453.673C540.266 431.158 558.517 413.06 580.903 413.06C603.289 412.917 621.54 431.158 621.54 453.673Z" fill="#070707"/>
<g clip-path="url(#clip0_9_2)">
<path d="M1927.8 781.65V723.554H1925.26C1910.04 747.769 1890.32 765.219 1866.08 775.977C1841.84 786.735 1817.03 792.095 1791.68 792.095C1759.57 792.095 1733.2 788.066 1712.61 780.007C1692.03 771.948 1675.83 760.524 1663.97 745.736C1652.12 730.947 1643.8 712.95 1639.04 691.707C1634.24 670.463 1631.86 646.952 1631.86 621.13V364.605H1751.94V600.161C1751.94 634.587 1757.56 660.252 1768.84 677.193C1780.12 694.133 1800.13 702.622 1828.88 702.622C1861.57 702.622 1885.23 693.349 1899.91 674.807C1914.55 656.263 1921.89 625.747 1921.89 583.26V364.644H2041.97V781.689H1927.8V781.65Z" fill="#070707"/>
<path d="M2232.18 205.694V781.654H2112.1V205.694H2232.18Z" fill="#070707"/>
<path d="M2425.84 205.694V781.654H2305.76V205.694H2425.84Z" fill="#070707"/>
<path d="M2610.14 639.677C2617.48 653.136 2627.2 664.012 2639.3 672.344C2651.44 680.678 2665.63 686.86 2681.99 690.888C2698.35 694.919 2715.25 696.953 2732.72 696.953C2744.57 696.953 2757.25 696.014 2770.78 694.135C2784.32 692.258 2796.99 688.619 2808.84 683.259C2820.69 677.899 2830.53 670.506 2838.45 661.077C2846.32 651.689 2850.3 639.717 2850.3 625.201C2850.3 609.592 2845.09 596.955 2834.68 587.292C2824.26 577.629 2810.56 569.532 2793.66 563.077C2776.77 556.62 2757.58 550.987 2736.17 546.137C2714.72 541.286 2693.06 535.926 2671.04 530.017C2648.49 524.657 2626.5 518.045 2605.1 510.261C2583.65 502.475 2564.5 492.382 2547.6 480.02C2530.7 467.656 2517 452.203 2506.59 433.62C2496.17 415.076 2490.96 392.62 2490.96 366.251C2490.96 336.675 2497.56 311.01 2510.85 289.219C2524.1 267.428 2541.45 249.275 2562.85 234.761C2584.26 220.246 2608.5 209.488 2635.57 202.485C2662.64 195.521 2689.7 192 2716.73 192C2748.31 192 2778.57 195.365 2807.65 202.094C2836.68 208.823 2862.48 219.699 2885.04 234.761C2907.59 249.823 2925.47 269.032 2938.72 292.427C2951.97 315.822 2958.61 344.186 2958.61 377.518H2830.08C2828.93 360.305 2825.12 346.064 2818.68 334.758C2812.2 323.451 2803.59 314.61 2792.88 308.154C2782.18 301.699 2769.92 297.122 2756.1 294.422C2742.28 291.723 2727.18 290.393 2710.86 290.393C2700.16 290.393 2689.42 291.488 2678.75 293.601C2668.05 295.753 2658.33 299.508 2649.59 304.907C2640.86 310.306 2633.68 316.996 2628.02 325.055C2622.36 333.115 2619.57 343.325 2619.57 355.688C2619.57 366.994 2621.83 376.149 2626.34 383.113C2630.85 390.116 2639.71 396.571 2653 402.479C2666.24 408.387 2684.58 414.294 2707.95 420.24C2731.33 426.148 2761.92 433.698 2799.69 442.813C2810.97 444.965 2826.6 448.877 2846.61 454.512C2866.62 460.144 2886.47 469.182 2906.24 481.545C2925.97 493.907 2943.03 510.456 2957.38 531.152C2971.74 551.848 2978.95 578.334 2978.95 610.61C2978.95 636.977 2973.58 661.429 2962.88 684.004C2952.17 706.577 2936.26 726.098 2915.1 742.491C2893.98 758.884 2867.73 771.678 2836.48 780.793C2805.23 789.909 2768.98 794.485 2727.8 794.485C2694.54 794.485 2662.27 790.572 2630.97 782.788C2599.68 775.002 2572.04 762.758 2548.09 746.09C2524.14 729.425 2505.11 708.181 2491 682.359C2476.9 656.54 2470.13 625.906 2470.7 590.423H2599.23C2599.19 609.827 2602.84 626.258 2610.14 639.677Z" fill="#070707"/>
<path d="M3134.43 364.609V417.855H3136.11C3150.75 395.281 3169.37 378.888 3191.92 368.638C3214.48 358.427 3239.29 353.302 3266.32 353.302C3300.68 353.302 3330.3 359.484 3355.11 371.846C3379.92 384.209 3400.47 400.601 3416.83 421.063C3433.2 441.523 3445.29 465.309 3453.21 492.46C3461.09 519.611 3465.05 548.014 3465.05 577.552C3465.05 605.524 3461.11 632.402 3453.21 658.221C3445.29 684.043 3433.31 706.891 3417.28 726.803C3401.21 746.717 3381.2 762.562 3357.25 774.416C3333.3 786.23 3305.23 792.176 3273.08 792.176C3246.02 792.176 3221.08 786.935 3198.24 776.449C3175.4 765.966 3156.66 750.512 3142.01 730.05H3140.33V927.697H3020.25V364.609H3134.43ZM3290.43 695.349C3303.68 687.837 3314.39 678.018 3322.54 665.889C3330.71 653.802 3336.49 639.679 3339.89 623.559C3343.25 607.441 3344.98 591.01 3344.98 574.344C3344.98 557.677 3343.14 541.286 3339.49 525.127C3335.8 509.009 3329.76 494.612 3321.32 481.977C3312.86 469.34 3301.99 459.129 3288.75 451.343C3275.5 443.559 3259.31 439.646 3240.11 439.646C3220.39 439.646 3203.9 443.559 3190.65 451.343C3177.41 459.129 3166.7 469.221 3158.54 481.584C3150.38 493.948 3144.6 508.187 3141.19 524.346C3137.83 540.464 3136.11 557.17 3136.11 574.344C3136.11 591.01 3137.91 607.402 3141.6 623.559C3145.25 639.679 3151.2 653.802 3159.36 665.889C3167.52 677.979 3178.39 687.799 3191.92 695.349C3205.46 702.899 3221.78 706.657 3240.97 706.657C3260.7 706.616 3277.19 702.86 3290.43 695.349Z" fill="#070707"/>
<path d="M3507.3 492.851C3508.97 465.975 3516.04 443.636 3528.46 425.914C3540.84 408.151 3556.62 393.911 3575.82 383.153C3594.98 372.394 3616.54 364.726 3640.49 360.149C3664.45 355.571 3688.55 353.302 3712.8 353.302C3734.79 353.302 3757.05 354.789 3779.61 357.723C3802.16 360.696 3822.71 366.486 3841.33 375.054C3859.94 383.661 3875.16 395.633 3886.98 410.969C3898.77 426.305 3904.74 446.61 3904.74 471.882V688.855C3904.74 707.672 3905.84 725.708 3908.14 742.882C3910.39 760.097 3914.33 773.007 3919.98 781.614H3798.18C3795.93 775.159 3794.08 768.586 3792.68 761.858C3791.29 755.128 3790.28 748.283 3789.74 741.278C3770.58 760.097 3748.02 773.282 3722.12 780.793C3696.18 788.305 3669.69 792.099 3642.63 792.099C3621.74 792.099 3602.32 789.673 3584.26 784.822C3566.23 779.971 3550.43 772.46 3536.9 762.249C3523.38 752.038 3512.8 739.126 3505.21 723.517C3497.58 707.947 3493.8 689.364 3493.8 667.846C3493.8 644.178 3498.14 624.695 3506.92 609.359C3515.65 594.022 3526.93 581.817 3540.75 572.661C3554.57 563.545 3570.38 556.661 3588.11 552.083C3605.87 547.505 3623.77 543.906 3641.8 541.207C3659.85 538.507 3677.61 536.356 3695.08 534.752C3712.55 533.148 3728.06 530.721 3741.59 527.474C3755.12 524.228 3765.83 519.533 3773.71 513.351C3781.56 507.171 3785.26 498.172 3784.69 486.318C3784.69 473.956 3782.6 464.137 3778.32 456.859C3774.11 449.582 3768.44 443.949 3761.44 439.919C3754.37 435.89 3746.22 433.189 3736.9 431.86C3727.61 430.531 3717.59 429.865 3706.9 429.865C3683.22 429.865 3664.6 434.716 3651.07 444.379C3637.55 454.042 3629.62 470.201 3627.42 492.773H3507.3V492.851ZM3784.65 577.552C3779.56 581.856 3773.26 585.22 3765.63 587.645C3758 590.071 3749.83 592.066 3741.09 593.709C3732.36 595.313 3723.17 596.683 3713.63 597.739C3704.02 598.835 3694.47 600.164 3684.86 601.768C3675.86 603.372 3666.94 605.524 3658.21 608.223C3649.48 610.924 3641.84 614.562 3635.36 619.099C3628.88 623.677 3623.68 629.466 3619.74 636.43C3615.8 643.435 3613.84 652.314 3613.84 663.033C3613.84 673.244 3615.8 681.853 3619.74 688.855C3623.68 695.858 3629.06 701.374 3635.81 705.405C3642.59 709.433 3650.47 712.25 3659.49 713.893C3668.5 715.497 3677.77 716.32 3687.36 716.32C3711.04 716.32 3729.36 712.564 3742.33 705.012C3755.3 697.5 3764.88 688.464 3771.07 677.979C3777.27 667.493 3781.09 656.892 3782.46 646.134C3783.86 635.374 3784.56 626.767 3784.56 620.312V577.552H3784.65Z" fill="#070707"/>
<path d="M4182.1 439.646C4162.95 439.646 4146.87 443.831 4133.91 452.165C4120.94 460.497 4110.36 471.257 4102.19 484.44C4094.04 497.624 4088.26 512.138 4084.86 527.983C4081.46 543.867 4079.77 559.594 4079.77 575.164C4079.77 590.228 4081.46 605.564 4084.86 621.135C4088.21 636.744 4093.75 650.867 4101.34 663.504C4108.97 676.141 4119.23 686.508 4132.22 694.567C4145.19 702.626 4160.97 706.656 4179.58 706.656C4208.35 706.656 4230.45 698.988 4245.99 683.652C4261.5 668.316 4271.22 647.777 4275.14 621.955H4391C4383.09 677.352 4360.56 719.566 4323.33 748.594C4286.14 777.624 4238.49 792.138 4180.41 792.138C4147.73 792.138 4117.7 786.896 4090.35 776.41C4063 765.925 4039.75 751.293 4020.59 732.437C4001.44 713.62 3986.47 691.163 3975.78 665.069C3965.06 638.975 3959.68 610.336 3959.68 579.156C3959.68 546.88 3964.61 516.912 3974.49 489.213C3984.33 461.515 3998.85 437.572 4018.05 417.423C4037.21 397.276 4060.62 381.509 4088.21 370.242C4115.81 358.936 4147.39 353.302 4182.91 353.302C4208.82 353.302 4233.76 356.51 4257.76 362.965C4281.71 369.421 4303.12 379.24 4322.02 392.425C4340.89 405.609 4356.26 422.001 4368.13 441.641C4379.97 461.281 4386.74 484.519 4388.43 511.395H4270.88C4262.96 463.548 4233.36 439.646 4182.1 439.646Z" fill="#070707"/>
<path d="M4562.59 681.621C4580.65 698.286 4606.56 706.62 4640.39 706.62C4664.63 706.62 4685.5 700.828 4702.99 689.289C4720.46 677.747 4731.15 665.5 4735.09 652.591H4840.77C4823.89 702.589 4797.91 738.385 4762.98 759.865C4728.04 781.382 4685.75 792.14 4636.13 792.14C4601.72 792.14 4570.72 786.898 4543.12 776.413C4515.48 765.929 4492.09 750.984 4472.96 731.658C4453.8 712.291 4438.99 689.171 4428.57 662.292C4418.15 635.416 4412.95 605.839 4412.95 573.564C4412.95 542.383 4418.28 513.355 4429.02 486.438C4439.73 459.56 4454.95 436.283 4474.67 416.682C4494.39 397.043 4517.93 381.59 4545.28 370.284C4572.66 358.977 4602.91 353.344 4636.22 353.344C4673.41 353.344 4705.85 360.19 4733.44 373.922C4761.04 387.654 4783.78 406.081 4801.54 429.163C4819.3 452.285 4832.13 478.652 4840.01 508.23C4847.86 537.805 4850.7 568.711 4848.45 600.988H4533.04C4534.7 638.077 4544.56 664.953 4562.59 681.621ZM4698.31 462.221C4683.9 447.159 4662.09 439.648 4632.78 439.648C4613.62 439.648 4597.66 442.738 4584.99 448.92C4572.32 455.1 4562.14 462.768 4554.56 471.925C4546.93 481.079 4541.59 490.742 4538.49 500.952C4535.36 511.163 4533.51 520.319 4532.99 528.378H4728.33C4722.71 499.31 4712.69 477.284 4698.31 462.221Z" fill="#070707"/>
<path d="M1554.43 207.183V782.595H1421.8L1227.08 483.621L1134.8 340.394L1048.97 207.183H1176.8L1428.53 593.204H1430.25V207.183H1554.43Z" fill="#070707"/>
<path d="M1045 335.457L1169.18 528.174V782.586H1045V335.457Z" fill="#070707"/>
</g>
<defs>
<clipPath id="clip0_9_2">
<rect width="3804.58" height="736" fill="white" transform="translate(1045 192)"/>
</clipPath>
</defs>
</svg>
