<svg width="5294" height="1024" viewBox="0 0 5294 1024" fill="none" xmlns="http://www.w3.org/2000/svg">
<path d="M1228.24 820.382V739.553H1224.7C1203.54 773.244 1176.09 797.521 1142.37 812.489C1108.65 827.457 1074.13 834.914 1038.86 834.914C994.187 834.914 957.498 829.309 928.854 818.097C900.21 806.884 877.674 790.99 861.181 770.415C844.692 749.839 833.111 724.8 826.49 695.244C819.816 665.688 816.506 632.976 816.506 597.051V240.146H983.573V567.877C983.573 615.774 991.39 651.482 1007.08 675.051C1022.77 698.62 1050.62 710.43 1090.62 710.43C1136.09 710.43 1169.01 697.529 1189.44 671.732C1209.81 645.931 1220.03 603.474 1220.03 544.361V240.2H1387.09V820.436H1228.24V820.382Z" fill="#070707"/>
<path d="M1651.73 19.052V820.389H1484.67V19.052H1651.73Z" fill="#070707"/>
<path d="M1921.16 19.052V820.389H1754.1V19.052H1921.16Z" fill="#070707"/>
<path d="M2177.59 622.854C2187.8 641.581 2201.32 656.713 2218.16 668.305C2235.05 679.9 2254.79 688.501 2277.55 694.106C2300.32 699.713 2323.83 702.543 2348.14 702.543C2364.62 702.543 2382.26 701.237 2401.09 698.623C2419.92 696.012 2437.55 690.948 2454.04 683.491C2470.53 676.034 2484.22 665.747 2495.23 652.629C2506.19 639.567 2511.72 622.911 2511.72 602.715C2511.72 580.998 2504.48 563.416 2489.99 549.972C2475.49 536.528 2456.43 525.262 2432.92 516.281C2409.42 507.297 2382.71 499.461 2352.93 492.712C2323.09 485.963 2292.96 478.506 2262.32 470.284C2230.94 462.827 2200.35 453.628 2170.57 442.798C2140.73 431.965 2114.08 417.923 2090.57 400.724C2067.06 383.521 2048.01 362.022 2033.51 336.167C2019.02 310.367 2011.77 279.123 2011.77 242.436C2011.77 201.286 2020.96 165.58 2039.45 135.261C2057.88 104.943 2082.01 79.6873 2111.8 59.4932C2141.58 39.2992 2175.3 24.3307 2212.96 14.5875C2250.62 4.89876 2288.28 0 2325.88 0C2369.82 0 2411.93 4.68118 2452.38 14.0433C2492.78 23.4055 2528.67 38.5373 2560.05 59.4932C2591.43 80.4491 2616.31 107.175 2634.74 139.725C2653.17 172.275 2662.41 211.737 2662.41 258.113H2483.59C2482 234.163 2476.69 214.35 2467.73 198.619C2458.71 182.889 2446.73 170.587 2431.84 161.606C2416.95 152.625 2399.89 146.256 2380.66 142.501C2361.43 138.745 2340.43 136.894 2317.72 136.894C2302.83 136.894 2287.88 138.418 2273.05 141.358C2258.16 144.351 2244.63 149.577 2232.48 157.088C2220.32 164.6 2210.34 173.907 2202.46 185.121C2194.59 196.333 2190.71 210.54 2190.71 227.74C2190.71 243.47 2193.85 256.207 2200.13 265.896C2206.4 275.639 2218.73 284.621 2237.21 292.84C2255.64 301.06 2281.15 309.279 2313.67 317.552C2346.2 325.771 2388.76 336.275 2441.31 348.957C2457 351.951 2478.74 357.394 2506.59 365.234C2534.43 373.07 2562.05 385.645 2589.55 402.845C2617 420.044 2640.73 443.07 2660.7 471.864C2680.68 500.659 2690.72 537.508 2690.72 582.414C2690.72 619.099 2683.24 653.119 2668.35 684.527C2653.46 715.933 2631.32 743.093 2601.88 765.901C2572.49 788.708 2535.97 806.508 2492.49 819.19C2449.01 831.873 2398.58 838.239 2341.29 838.239C2295.01 838.239 2250.11 832.796 2206.57 821.966C2163.04 811.133 2124.58 794.098 2091.26 770.908C2057.93 747.721 2031.46 718.165 2011.83 682.239C1992.2 646.316 1982.79 603.695 1983.59 554.328H2162.41C2162.35 581.324 2167.43 604.185 2177.59 622.854Z" fill="#070707"/>
<path d="M2907.03 240.151V314.233H2909.37C2929.74 282.825 2955.64 260.018 2987.02 245.757C3018.41 231.551 3052.93 224.42 3090.53 224.42C3138.34 224.42 3179.55 233.021 3214.07 250.221C3248.58 267.421 3277.17 290.228 3299.94 318.696C3322.71 347.162 3339.53 380.256 3350.55 418.031C3361.51 455.806 3367.02 495.323 3367.02 536.421C3367.02 575.337 3361.54 612.733 3350.55 648.656C3339.53 684.581 3322.87 716.369 3300.57 744.073C3278.21 771.78 3250.36 793.826 3217.04 810.317C3183.72 826.755 3144.67 835.028 3099.94 835.028C3062.29 835.028 3027.59 827.735 2995.81 813.147C2964.03 798.561 2937.96 777.06 2917.58 748.591H2915.24V1023.58H2748.18V240.151H2907.03ZM3124.08 700.311C3142.5 689.861 3157.41 676.198 3168.75 659.324C3180.12 642.507 3188.17 622.858 3192.9 600.43C3197.56 578.005 3199.97 555.144 3199.97 531.957C3199.97 508.767 3197.4 485.963 3192.33 463.481C3187.2 441.056 3178.8 421.025 3167.06 403.446C3155.28 385.864 3140.16 371.658 3121.74 360.825C3103.31 349.994 3080.77 344.551 3054.07 344.551C3026.62 344.551 3003.69 349.994 2985.26 360.825C2966.82 371.658 2951.93 385.699 2940.58 402.899C2929.22 420.101 2921.18 439.912 2916.44 462.394C2911.76 484.819 2909.37 508.062 2909.37 531.957C2909.37 555.144 2911.88 577.951 2917.01 600.43C2922.09 622.858 2930.36 642.507 2941.72 659.324C2953.08 676.144 2968.2 689.807 2987.02 700.311C3005.85 710.816 3028.56 716.044 3055.27 716.044C3082.71 715.987 3105.65 710.762 3124.08 700.311Z" fill="#070707"/>
<path d="M3425.81 418.575C3428.13 381.182 3437.96 350.102 3455.25 325.445C3472.48 300.732 3494.43 280.92 3521.15 265.951C3547.8 250.983 3577.8 240.314 3611.12 233.946C3644.45 227.577 3677.99 224.42 3711.72 224.42C3742.31 224.42 3773.29 226.489 3804.67 230.571C3836.05 234.708 3864.64 242.764 3890.54 254.684C3916.44 266.659 3937.62 283.315 3954.06 304.652C3970.47 325.989 3978.77 354.24 3978.77 389.401V691.277C3978.77 717.457 3980.3 742.55 3983.5 766.445C3986.63 790.396 3992.11 808.358 3999.97 820.332H3830.51C3827.37 811.351 3824.81 802.206 3822.87 792.846C3820.92 783.483 3819.51 773.958 3818.76 764.213C3792.11 790.396 3760.73 808.74 3724.68 819.191C3688.6 829.641 3651.74 834.92 3614.1 834.92C3585.03 834.92 3558.01 831.544 3532.89 824.795C3507.8 818.046 3485.82 807.596 3467 793.39C3448.17 779.184 3433.45 761.219 3422.9 739.502C3412.28 717.839 3407.02 691.985 3407.02 662.046C3407.02 629.117 3413.07 602.01 3425.28 580.673C3437.43 559.335 3453.12 542.354 3472.35 529.615C3491.58 516.932 3513.57 507.354 3538.24 500.985C3562.95 494.615 3587.85 489.608 3612.94 485.852C3638.06 482.097 3662.77 479.104 3687.07 476.872C3711.37 474.64 3732.95 471.264 3751.77 466.747C3770.59 462.23 3785.5 455.699 3796.46 447.097C3807.39 438.499 3812.53 425.978 3811.75 409.487C3811.75 392.287 3808.83 378.625 3802.88 368.5C3797.03 358.375 3789.14 350.538 3779.4 344.931C3769.56 339.326 3758.22 335.567 3745.26 333.718C3732.32 331.869 3718.39 330.943 3703.51 330.943C3670.56 330.943 3644.66 337.692 3625.84 351.136C3607.02 364.58 3596 387.062 3592.93 418.467H3425.81V418.575ZM3811.68 536.421C3804.61 542.408 3795.84 547.089 3785.22 550.462C3774.6 553.838 3763.24 556.614 3751.08 558.899C3738.93 561.131 3726.15 563.037 3712.88 564.507C3699.5 566.031 3686.22 567.88 3672.85 570.112C3660.32 572.343 3647.92 575.337 3635.77 579.092C3623.62 582.851 3613 587.912 3603.98 594.225C3594.96 600.594 3587.73 608.649 3582.25 618.337C3576.77 628.083 3574.04 640.437 3574.04 655.351C3574.04 669.557 3576.77 681.534 3582.25 691.277C3587.73 701.019 3595.21 708.694 3604.61 714.302C3614.04 719.907 3625 723.827 3637.56 726.112C3650.08 728.344 3662.99 729.488 3676.33 729.488C3709.27 729.488 3734.77 724.263 3752.81 713.755C3770.85 703.305 3784.19 690.733 3792.8 676.145C3801.41 661.556 3806.74 646.806 3808.65 631.838C3810.59 616.868 3811.56 604.893 3811.56 595.913V536.421H3811.68Z" fill="#070707"/>
<path d="M4364.66 344.551C4338.01 344.551 4315.65 350.374 4297.61 361.969C4279.57 373.561 4264.85 388.531 4253.49 406.872C4242.15 425.216 4234.1 445.409 4229.37 467.455C4224.64 489.554 4222.29 511.435 4222.29 533.098C4222.29 554.056 4224.64 575.394 4229.37 597.057C4234.04 618.774 4241.74 638.423 4252.29 656.005C4262.91 673.587 4277.19 688.011 4295.26 699.223C4313.3 710.436 4335.26 716.044 4361.16 716.044C4401.18 716.044 4431.94 705.375 4453.55 684.038C4475.12 662.7 4488.65 634.124 4494.1 598.198H4655.3C4644.31 675.272 4612.96 734.005 4561.16 774.391C4509.42 814.781 4443.12 834.974 4362.32 834.974C4316.84 834.974 4275.06 827.681 4237.01 813.093C4198.96 798.504 4166.61 778.147 4139.96 751.913C4113.3 725.732 4092.48 694.488 4077.6 658.183C4062.69 621.878 4055.21 582.032 4055.21 538.652C4055.21 493.746 4062.07 452.051 4075.82 413.514C4089.5 374.977 4109.7 341.665 4136.42 313.632C4163.07 285.601 4195.64 263.665 4234.04 247.989C4272.43 232.258 4316.37 224.42 4365.79 224.42C4401.84 224.42 4436.54 228.884 4469.93 237.865C4503.25 246.846 4533.03 260.508 4559.34 278.851C4585.58 297.195 4606.97 320.002 4623.48 347.327C4639.95 374.651 4649.38 406.983 4651.73 444.376H4488.18C4477.16 377.806 4435.98 344.551 4364.66 344.551Z" fill="#070707"/>
<path d="M4894.04 681.211C4919.16 704.398 4955.21 715.993 5002.28 715.993C5036.01 715.993 5065.04 707.936 5089.38 691.88C5113.68 675.822 5128.55 658.784 5134.04 640.822H5281.07C5257.59 710.385 5221.44 760.189 5172.84 790.074C5124.23 820.009 5065.39 834.977 4996.36 834.977C4948.47 834.977 4905.35 827.684 4866.95 813.096C4828.49 798.511 4795.95 777.717 4769.33 750.828C4742.68 723.883 4722.08 691.716 4707.57 654.32C4693.07 616.927 4685.84 575.776 4685.84 530.873C4685.84 487.49 4693.26 447.103 4708.2 409.654C4723.11 372.258 4744.28 339.872 4771.71 312.602C4799.15 285.278 4831.91 263.778 4869.96 248.047C4908.04 232.316 4950.13 224.479 4996.49 224.479C5048.22 224.479 5093.35 234.004 5131.75 253.109C5170.15 272.215 5201.78 297.852 5226.49 329.966C5251.2 362.136 5269.05 398.821 5280.01 439.972C5290.94 481.12 5294.89 524.121 5291.75 569.027H4852.92C4855.24 620.629 4868.96 658.022 4894.04 681.211ZM5082.86 375.96C5062.82 355.005 5032.47 344.554 4991.69 344.554C4965.04 344.554 4942.84 348.853 4925.21 357.454C4907.57 366.053 4893.42 376.721 4882.86 389.461C4872.25 402.197 4864.82 415.641 4860.5 429.847C4856.15 444.053 4853.58 456.792 4852.86 468.004H5124.64C5116.81 427.561 5102.87 396.918 5082.86 375.96Z" fill="#070707"/>
<path d="M708.768 21.1235V821.697H524.241L253.326 405.734L124.944 206.461L5.51953 21.1235H183.372L533.599 558.197H535.995V21.1235H708.768Z" fill="#070707"/>
<path d="M0 199.592L172.774 467.721V821.685H0V199.592Z" fill="#070707"/>
</svg>
