<svg width="4152" height="1024" viewBox="0 0 4152 1024" fill="none" xmlns="http://www.w3.org/2000/svg">
<rect x="0.5" y="0.5" width="4150.17" height="1023" rx="191.5" fill="#070707"/>
<rect x="0.5" y="0.5" width="4150.17" height="1023" rx="191.5" stroke="black"/>
<path d="M1100.42 756.013V700.443H1097.98C1083.43 723.605 1064.56 740.296 1041.38 750.586C1018.19 760.877 994.462 766.003 970.218 766.003C939.503 766.003 914.279 762.15 894.587 754.442C874.894 746.733 859.4 735.806 848.062 721.66C836.726 707.514 828.764 690.3 824.212 669.98C819.624 649.66 817.348 627.171 817.348 602.472V357.1H932.206V582.415C932.206 615.344 937.581 639.894 948.368 656.097C959.157 672.301 978.301 680.421 1005.8 680.421C1037.06 680.421 1059.7 671.551 1073.74 653.815C1087.75 636.077 1094.77 606.888 1094.77 566.248V357.138H1209.63V756.05H1100.42V756.013Z" fill="#FAFAFA"/>
<path d="M1391.57 205.098V756.017H1276.71V205.098H1391.57Z" fill="#FAFAFA"/>
<path d="M1576.8 205.098V756.017H1461.94V205.098H1576.8Z" fill="#FAFAFA"/>
<path d="M1753.09 620.212C1760.11 633.087 1769.41 643.49 1780.98 651.46C1792.59 659.431 1806.17 665.344 1821.82 669.198C1837.47 673.053 1853.63 674.998 1870.34 674.998C1881.68 674.998 1893.8 674.1 1906.75 672.303C1919.69 670.508 1931.81 667.027 1943.15 661.9C1954.49 656.773 1963.9 649.701 1971.47 640.682C1979 631.702 1982.81 620.251 1982.81 606.367C1982.81 591.436 1977.83 579.349 1967.86 570.106C1957.9 560.863 1944.8 553.117 1928.63 546.943C1912.47 540.767 1894.12 535.379 1873.64 530.739C1853.12 526.099 1832.41 520.973 1811.34 515.32C1789.77 510.193 1768.74 503.869 1748.26 496.424C1727.75 488.976 1709.43 479.322 1693.27 467.497C1677.11 455.671 1664 440.89 1654.04 423.115C1644.08 405.377 1639.09 383.897 1639.09 358.675C1639.09 330.384 1645.41 305.836 1658.12 284.992C1670.79 264.148 1687.38 246.785 1707.86 232.902C1728.34 219.018 1751.52 208.727 1777.41 202.029C1803.3 195.368 1829.19 192 1855.04 192C1885.25 192 1914.2 195.218 1942.01 201.655C1969.78 208.091 1994.46 218.494 2016.03 232.902C2037.61 247.309 2054.71 265.683 2067.38 288.061C2080.05 310.439 2086.41 337.569 2086.41 369.452H1963.47C1962.37 352.987 1958.72 339.366 1952.56 328.551C1946.37 317.736 1938.13 309.279 1927.89 303.104C1917.65 296.93 1905.92 292.551 1892.7 289.969C1879.48 287.387 1865.05 286.115 1849.43 286.115C1839.2 286.115 1828.92 287.163 1818.72 289.183C1808.48 291.242 1799.18 294.834 1790.83 299.998C1782.47 305.162 1775.61 311.561 1770.19 319.27C1764.78 326.979 1762.11 336.746 1762.11 348.571C1762.11 359.386 1764.27 368.143 1768.59 374.804C1772.9 381.502 1781.37 387.677 1794.08 393.327C1806.75 398.979 1824.29 404.629 1846.65 410.317C1869.01 415.967 1898.27 423.189 1934.4 431.908C1945.19 433.966 1960.13 437.709 1979.28 443.098C1998.42 448.486 2017.41 457.131 2036.32 468.956C2055.18 480.78 2071.5 496.61 2085.23 516.407C2098.96 536.203 2105.87 561.537 2105.87 592.41C2105.87 617.631 2100.73 641.019 2090.49 662.613C2080.25 684.204 2065.03 702.877 2044.79 718.557C2024.59 734.237 1999.48 746.474 1969.59 755.193C1939.7 763.913 1905.02 768.29 1865.64 768.29C1833.82 768.29 1802.95 764.547 1773.02 757.102C1743.09 749.654 1716.65 737.942 1693.74 721.999C1670.83 706.058 1652.63 685.738 1639.13 661.039C1625.64 636.342 1619.17 607.04 1619.72 573.1H1742.66C1742.62 591.66 1746.11 607.377 1753.09 620.212Z" fill="#FAFAFA"/>
<path d="M2254.58 357.104V408.035H2256.19C2270.19 386.442 2288 370.763 2309.58 360.958C2331.15 351.191 2354.89 346.289 2380.74 346.289C2413.61 346.289 2441.94 352.202 2465.67 364.027C2489.4 375.852 2509.06 391.532 2524.71 411.104C2540.36 430.674 2551.93 453.426 2559.5 479.396C2567.04 505.367 2570.83 532.535 2570.83 560.789C2570.83 587.544 2567.06 613.254 2559.5 637.951C2551.93 662.65 2540.47 684.504 2525.14 703.551C2509.77 722.599 2490.63 737.755 2467.72 749.093C2444.81 760.394 2417.96 766.082 2387.21 766.082C2361.32 766.082 2337.47 761.068 2315.62 751.038C2293.77 741.011 2275.84 726.228 2261.84 706.656H2260.23V895.71H2145.37V357.104H2254.58ZM2403.8 673.464C2416.47 666.279 2426.72 656.886 2434.52 645.286C2442.33 633.724 2447.86 620.215 2451.12 604.796C2454.32 589.378 2455.98 573.661 2455.98 557.721C2455.98 541.778 2454.22 526.1 2450.73 510.643C2447.2 495.226 2441.43 481.454 2433.35 469.369C2425.26 457.281 2414.86 447.515 2402.2 440.067C2389.53 432.621 2374.03 428.879 2355.67 428.879C2336.8 428.879 2321.03 432.621 2308.36 440.067C2295.69 447.515 2285.45 457.168 2277.65 468.993C2269.84 480.82 2264.31 494.44 2261.05 509.896C2257.84 525.313 2256.19 541.293 2256.19 557.721C2256.19 573.661 2257.92 589.341 2261.45 604.796C2264.94 620.215 2270.63 633.724 2278.43 645.286C2286.24 656.849 2296.64 666.242 2309.58 673.464C2322.52 680.686 2338.14 684.28 2356.5 684.28C2375.36 684.241 2391.13 680.649 2403.8 673.464Z" fill="#FAFAFA"/>
<path d="M2611.25 479.77C2612.84 454.063 2619.6 432.695 2631.49 415.744C2643.33 398.753 2658.42 385.133 2676.79 374.842C2695.11 364.551 2715.74 357.216 2738.65 352.838C2761.56 348.459 2784.62 346.289 2807.81 346.289C2828.84 346.289 2850.14 347.711 2871.71 350.518C2893.29 353.362 2912.94 358.9 2930.75 367.095C2948.56 375.328 2963.11 386.779 2974.42 401.448C2985.7 416.118 2991.4 435.54 2991.4 459.713V667.253C2991.4 685.252 2992.46 702.503 2994.65 718.931C2996.81 735.397 3000.58 747.746 3005.98 755.978H2889.47C2887.32 749.804 2885.56 743.517 2884.22 737.082C2882.89 730.645 2881.92 724.096 2881.4 717.396C2863.08 735.397 2841.5 748.009 2816.72 755.194C2791.92 762.378 2766.57 766.008 2740.69 766.008C2720.71 766.008 2702.13 763.687 2684.86 759.047C2667.62 754.407 2652.5 747.222 2639.56 737.455C2626.62 727.689 2616.5 715.338 2609.24 700.408C2601.95 685.515 2598.33 667.74 2598.33 647.157C2598.33 624.518 2602.48 605.882 2610.88 591.213C2619.24 576.543 2630.02 564.868 2643.24 556.11C2656.46 547.391 2671.58 540.806 2688.54 536.427C2705.53 532.048 2722.65 528.605 2739.9 526.024C2757.16 523.442 2774.15 521.384 2790.86 519.849C2807.57 518.315 2822.4 515.994 2835.34 512.888C2848.28 509.783 2858.53 505.293 2866.07 499.379C2873.58 493.468 2877.12 484.86 2876.58 473.522C2876.58 461.697 2874.57 452.304 2870.48 445.344C2866.46 438.383 2861.03 432.995 2854.34 429.14C2847.57 425.286 2839.78 422.703 2830.87 421.431C2821.97 420.16 2812.39 419.523 2802.16 419.523C2779.51 419.523 2761.71 424.163 2748.77 433.406C2735.83 442.649 2728.25 458.105 2726.14 479.696H2611.25V479.77ZM2876.53 560.789C2871.67 564.905 2865.64 568.124 2858.34 570.443C2851.04 572.764 2843.23 574.672 2834.87 576.243C2826.52 577.778 2817.73 579.088 2808.6 580.099C2799.41 581.146 2790.28 582.417 2781.09 583.952C2772.47 585.486 2763.95 587.544 2755.59 590.126C2747.24 592.71 2739.94 596.189 2733.74 600.529C2727.54 604.908 2722.56 610.446 2718.8 617.107C2715.03 623.807 2713.15 632.3 2713.15 642.554C2713.15 652.32 2715.03 660.555 2718.8 667.253C2722.56 673.951 2727.71 679.227 2734.17 683.083C2740.65 686.936 2748.19 689.631 2756.82 691.202C2765.43 692.736 2774.3 693.523 2783.48 693.523C2806.13 693.523 2823.65 689.931 2836.06 682.707C2848.46 675.522 2857.63 666.879 2863.55 656.849C2869.47 646.82 2873.13 636.679 2874.45 626.389C2875.78 616.096 2876.45 607.864 2876.45 601.69V560.789H2876.53Z" fill="#FAFAFA"/>
<path d="M3256.71 428.879C3238.38 428.879 3223.01 432.882 3210.61 440.854C3198.21 448.823 3188.09 459.115 3180.27 471.725C3172.48 484.336 3166.94 498.219 3163.69 513.375C3160.44 528.568 3158.83 543.612 3158.83 558.505C3158.83 572.914 3160.44 587.583 3163.69 602.477C3166.9 617.407 3172.2 630.916 3179.45 643.003C3186.75 655.091 3196.57 665.008 3208.99 672.716C3221.4 680.425 3236.49 684.28 3254.3 684.28C3281.81 684.28 3302.96 676.945 3317.81 662.276C3332.65 647.606 3341.95 627.96 3345.7 603.261H3456.52C3448.96 656.249 3427.41 696.629 3391.8 724.394C3356.23 752.162 3310.64 766.045 3255.09 766.045C3223.83 766.045 3195.11 761.031 3168.95 751.001C3142.79 740.972 3120.54 726.976 3102.22 708.94C3083.9 690.941 3069.58 669.461 3059.35 644.501C3049.1 619.541 3043.96 592.147 3043.96 562.323C3043.96 531.45 3048.67 502.785 3058.12 476.291C3067.53 449.797 3081.42 426.895 3099.79 407.622C3118.11 388.351 3140.5 373.27 3166.9 362.492C3193.3 351.678 3223.51 346.289 3257.48 346.289C3282.27 346.289 3306.12 349.358 3329.07 355.532C3351.98 361.707 3372.46 371.099 3390.55 383.71C3408.59 396.321 3423.3 412.001 3434.64 430.787C3445.97 449.573 3452.45 471.801 3454.06 497.508H3341.63C3334.05 451.742 3305.73 428.879 3256.71 428.879Z" fill="#FAFAFA"/>
<path d="M3620.66 660.333C3637.92 676.274 3662.71 684.245 3695.07 684.245C3718.26 684.245 3738.22 678.706 3754.95 667.667C3771.65 656.627 3781.88 644.914 3785.65 632.565H3886.74C3870.59 680.39 3845.74 714.63 3812.33 735.175C3778.91 755.756 3738.45 766.047 3691 766.047C3658.08 766.047 3628.43 761.033 3602.03 751.003C3575.59 740.976 3553.22 726.68 3534.92 708.194C3516.59 689.67 3502.43 667.554 3492.46 641.845C3482.49 616.137 3477.52 587.846 3477.52 556.975C3477.52 527.149 3482.62 499.383 3492.89 473.637C3503.14 447.927 3517.69 425.662 3536.55 406.913C3555.42 388.128 3577.94 373.347 3604.1 362.532C3630.28 351.717 3659.22 346.329 3691.08 346.329C3726.65 346.329 3757.68 352.878 3784.08 366.012C3810.48 379.147 3832.22 396.773 3849.21 418.851C3866.2 440.968 3878.47 466.189 3886.01 494.481C3893.52 522.77 3896.23 552.333 3894.08 583.206H3592.39C3593.98 618.682 3603.41 644.39 3620.66 660.333ZM3750.47 450.472C3736.69 436.066 3715.82 428.881 3687.79 428.881C3669.47 428.881 3654.2 431.836 3642.08 437.75C3629.96 443.661 3620.23 450.996 3612.97 459.754C3605.67 468.51 3600.57 477.753 3597.6 487.52C3594.6 497.286 3592.84 506.044 3592.34 513.753H3779.19C3773.81 485.948 3764.23 464.881 3750.47 450.472Z" fill="#FAFAFA"/>
<path d="M743.279 206.522V756.917H616.416L430.162 470.942L341.899 333.942L259.795 206.522H382.068L622.85 575.76H624.497V206.522H743.279Z" fill="#FAFAFA"/>
<path d="M256 329.219L374.782 513.558V756.909H256V329.219Z" fill="#FAFAFA"/>
</svg>
